<?xml version="1.0" standalone="no"?>
<!DOCTYPE svg PUBLIC "-//W3C//DTD SVG 20010904//EN"
 "http://www.w3.org/TR/2001/REC-SVG-20010904/DTD/svg10.dtd">
<svg version="1.0" xmlns="http://www.w3.org/2000/svg"
 width="280.000000pt" height="280.000000pt" viewBox="0 0 280.000000 280.000000"
 preserveAspectRatio="xMidYMid meet">
<metadata>
Created by potrace 1.11, written by Peter Selinger 2001-2013
</metadata>
<g transform="translate(0.000000,280.000000) scale(0.100000,-0.100000)"
fill="#000000" stroke="none">
<path d="M1259 2207 c-202 -200 -348 -393 -434 -572 -73 -152 -88 -213 -91
-355 -1 -118 12 -250 26 -250 4 0 14 24 23 53 25 80 92 197 163 284 34 43 140
154 234 247 236 234 313 358 309 500 -2 57 -32 161 -55 183 -7 8 -14 19 -14
24 0 31 -52 -6 -161 -114z"/>
<path d="M1647 2069 c-12 -157 -58 -233 -282 -461 -197 -201 -271 -284 -347
-388 -110 -151 -181 -313 -194 -443 l-6 -66 52 -55 c89 -94 206 -160 340 -192
65 -16 242 -12 315 6 71 18 188 73 247 116 96 71 193 209 239 341 46 132 71
381 49 478 -5 22 -11 51 -14 65 -12 62 -64 200 -75 200 -3 0 -19 -31 -36 -68
-82 -186 -246 -380 -455 -539 -119 -90 -243 -165 -251 -152 -14 23 4 109 38
178 31 64 60 99 207 250 179 183 218 232 254 317 26 62 41 153 31 182 -5 12
-4 24 1 27 21 13 -43 200 -87 254 l-20 24 -6 -74z"/>
<path d="M420 1834 c-91 -39 -134 -124 -144 -283 -7 -98 -45 -177 -98 -206
-32 -17 -38 -25 -38 -52 0 -21 6 -33 18 -37 61 -20 108 -105 117 -212 14 -164
54 -247 138 -285 63 -28 77 -25 77 15 0 30 -4 35 -31 41 -43 10 -97 60 -109
103 -6 20 -13 71 -15 112 -3 41 -8 93 -11 114 -6 46 -50 132 -71 141 -12 4 -8
12 15 37 38 38 58 94 61 173 5 117 16 180 37 212 15 23 69 67 85 69 5 1 16 2
24 3 10 1 15 12 15 36 0 40 -13 44 -70 19z"/>
<path d="M2270 1816 c0 -30 3 -34 33 -40 60 -11 111 -75 121 -152 3 -22 8 -73
10 -114 6 -91 19 -133 57 -182 l29 -36 -28 -30 c-33 -35 -50 -86 -57 -168 -3
-33 -8 -83 -10 -112 -5 -52 -25 -103 -49 -128 -18 -17 -73 -44 -91 -44 -11 0
-15 -10 -15 -35 0 -39 5 -40 62 -23 49 14 124 95 138 148 6 21 13 71 16 111 9
124 44 200 108 234 30 16 36 25 36 51 0 26 -6 34 -31 44 -64 27 -104 112 -112
240 -8 127 -56 212 -140 251 -63 28 -77 25 -77 -15z"/>
</g>
</svg>
